# AST/ASF file generated using VICON BodyLanguage
# -----------------------------------------------
:version 1.10
:name VICON
:units
  mass 1.0
  length 0.45
  angle deg
:documentation
   .ast/.asf automatically generated from VICON data using
   VICON BodyBuilder and BodyLanguage model FoxedUp or BRILLIANT.MOD
:root
   order TX TY TZ RX RY RZ
   axis XYZ
   position 0 0 0  
   orientation 0 0 0 
:bonedata
  begin
     id 1 
     name lhipjoint
     direction 0.528046 -0.759594 0.379717 
     length 2.39752 
     axis 0 0 0  XYZ
  end
  begin
     id 2 
     name lfemur
     direction 0.34202 -0.939693 0  
     length 7.31175  
     axis 0 0 20  XYZ
    dof rx ry rz
    limits (-160.0 20.0)
           (-70.0 70.0)
           (-60.0 70.0)
  end
  begin
     id 3 
     name ltibia
     direction 0.34202 -0.939693 0   
     length 7.52482   
     axis 0 0 20   XYZ
    dof rx
    limits (-10.0 170.0)
  end
  begin
     id 4 
     name lfoot
     direction 0.0675379 -0.185559 0.980309   
     length 2.00961   
     axis -90 7.62852e-016 20   XYZ
    dof rx rz
    limits (-45.0 90.0)
           (-70.0 20.0)
  end
  begin
     id 5 
     name ltoes
     direction 1.5352e-011 -4.22286e-011 1   
     length 1.01383   
     axis -90 7.62852e-016 20   XYZ
    dof rx
    limits (-90.0 20.0)
  end
  begin
     id 6 
     name rhipjoint
     direction -0.510274 -0.769251 0.384544   
     length 2.36742  
     axis 0 0 0  XYZ 
  end
  begin
     id 7 
     name rfemur
     direction -0.34202 -0.939693 0   
     length 7.45325   
     axis 0 0 -20   XYZ
    dof rx ry rz
    limits (-160.0 20.0)
           (-70.0 70.0)
           (-70.0 60.0)
  end
  begin
     id 8 
     name rtibia
     direction -0.34202 -0.939693 0   
     length 7.49587   
     axis 0 0 -20   XYZ
    dof rx
    limits (-10.0 170.0)
 end
 begin
     id 9 
     name rfoot
     direction -0.106475 -0.292536 0.950308   
     length 2.20898  
     axis -90 -7.62852e-016 -20   XYZ
    dof rx rz
    limits (-45.0 90.0)
           (-20.0 70.0)
  end
  begin
     id 10 
     name rtoes
     direction -1.53597e-011 -4.22023e-011 1   
     length 1.10065   
     axis -90 -7.62852e-016 -20   XYZ
    dof rx
    limits (-90.0 20.0)
  end
  begin
     id 11 
     name lowerback
     direction 0.0260024 0.998026 -0.0571652   
     length 2.11214   
     axis 0 0 0   XYZ
    dof rx ry rz
    limits (-20.0 45.0)
           (-30.0 30.0)
           (-30.0 30.0)
  end
  begin
     id 12 
     name upperback
     direction 0.0216202 0.999542 -0.0211766   
     length 2.11689   
     axis 0 0 0   XYZ
    dof rx ry rz
    limits (-20.0 45.0)
           (-30.0 30.0)
           (-30.0 30.0)
  end
  begin
     id 13 
     name thorax
     direction 0.00883312 0.999944 0.00589057   
     length 2.11821   
     axis 0 0 0   XYZ
    dof rx ry rz
    limits (-20.0 45.0)
           (-30.0 30.0)
           (-30.0 30.0)
  end
  begin
     id 14 
     name lowerneck
     direction -0.059386 0.994433 0.0870401   
     length 1.81176   
     axis 0 0 0   XYZ
    dof rx ry rz
    limits (-20.0 45.0)
           (-30.0 30.0)
           (-30.0 30.0)
  end
  begin
     id 15 
     name upperneck
     direction 0.0506457 0.97328 -0.223967   
     length 1.82382   
     axis 0 0 0   XYZ
    dof rx ry rz
    limits (-20.0 45.0)
           (-30.0 30.0)
           (-30.0 30.0)
  end
  begin
     id 16
     name head
     direction 0.0205902 0.996147 -0.0852487  
     length 1.84805  
     axis 0 0 0   XYZ
    dof rx ry rz
    limits (-20.0 45.0)
           (-30.0 30.0)
           (-30.0 30.0)
  end
  begin
     id 17 
     name lclavicle
     direction 0.949493 0.303881 -0.0782325  
     length 3.60584  
     axis 0 0 0   XYZ
    dof ry rz
    limits (-20.0 10.0)
           (0.0 20.0)
  end
  begin
     id 18 
     name lhumerus
     direction 1 -4.48965e-011 1.48782e-027   
     length 4.95681   
     axis 180 -30 -90   XYZ
    dof rx ry rz
    limits (-60.0 90.0)
           (-90.0 90.0)
           (-90.0 90.0)
  end
  begin
     id 19
     name lradius
     direction 1 -4.48952e-011 2.06528e-027   
     length 3.40915   
     axis 180 -30 -90   XYZ
    dof rx
    limits (-10.0 170.0)
  end
  begin
     id 20
     name lwrist
     direction 1 -4.48964e-011 1.28021e-027   
     length 1.70457   
     axis -1.61767e-015 90 90   XYZ
    dof ry
    limits (-180.0 0.0)
 end
  begin
     id 21 
     name lhand
     direction 1 -4.49094e-011 2.54887e-027   
     length 0.616403   
     axis -1.63363e-015 90 90   XYZ
    dof rx rz
    limits (-90.0 90.0)
           (-45.0 45.0)
  end
  begin
     id 22 
     name lfingers
     direction 1 -4.49002e-011 5.11407e-027   
     length 0.49696   
     axis -3.26723e-015 90 90   XYZ
    dof rx
    limits (0.0 90.0)
  end
  begin
     id 23
     name lthumb
     direction 0.707107 -6.34998e-011 0.707107   
     length 0.713539   
     axis -90 45 -2.25915e-014   XYZ
    dof rx rz
    limits (-45.0 45.0)
           (-45.0 45.0)
  end
  begin
     id 24 
     name rclavicle
     direction -0.937751 0.334612 -0.0930482   
     length 3.46287  
     axis 0 0 0   XYZ 
    dof ry rz
    limits (-10.0 20.0)
           (-20.0 0.0)
  end
  begin
     id 25 
     name rhumerus
     direction -1 -4.48962e-011 3.59972e-027  
     length 5.352   
     axis 180 30 90   XYZ
    dof rx ry rz
    limits (-90.0 60.0)
           (-90.0 90.0)
           (-90.0 90.0)
  end
  begin
     id 26 
     name rradius
     direction -1 -4.48987e-011 -3.76925e-027   
     length 3.43721   
     axis 180 30 90   XYZ
    dof rx
    limits (-10.0 170.0)
  end
  begin
     id 27 
     name rwrist
     direction -1 -4.48943e-011 1.28112e-027   
     length 1.7186   
     axis -1.61767e-015 -90 -90   XYZ
    dof ry
    limits (-180.0 0.0)
  end
  begin
     id 28
     name rhand
     direction -1 -4.49027e-011 2.55483e-027   
     length 0.72009   
     axis -1.63363e-015 -90 -90   XYZ
    dof rx rz
    limits (-90.0 90.0)
           (-45.0 45.0)
  end
  begin
     id 29
     name rfingers
     direction -1 -4.48827e-011 5.14506e-027   
     length 0.580555   
     axis -3.26723e-015 -90 -90   XYZ
    dof rx
    limits (0.0 90.0)
  end
  begin
     id 30
     name rthumb
     direction -0.707107 -6.34936e-011 0.707107   
     length 0.833564   
     axis -90 -45 2.25915e-014   XYZ
    dof rx rz
    limits (-45.0 45.0)
           (-45.0 45.0)
  end
:hierarchy
  begin
    root lhipjoint rhipjoint lowerback
    lhipjoint lfemur
    lfemur ltibia
    ltibia lfoot
    lfoot ltoes
    rhipjoint rfemur
    rfemur rtibia
    rtibia rfoot
    rfoot rtoes
    lowerback upperback
    upperback thorax
    thorax lowerneck lclavicle rclavicle
    lowerneck upperneck
    upperneck head
    lclavicle lhumerus
    lhumerus lradius
    lradius lwrist
    lwrist lhand lthumb
    lhand lfingers
    rclavicle rhumerus
    rhumerus rradius
    rradius rwrist
    rwrist rhand rthumb
    rhand rfingers
  end

#!OML:ASF H:\Terrain\Patient Classification 1\Terrain2\Thursday\justin.ASF
:FULLY-SPECIFIED
:DEGREES
263
root -2.76746 20.5726 10.7495 -51.0179 82.9367 -46.7792
lowerback 5.1635 0.0399751 1.95392
upperback 4.1093 0.252955 3.87145
thorax 1.32633 0.183053 2.88258
lowerneck -11.6777 -0.936022 -8.28245
upperneck 41.9113 3.42248 0.26398
head 17.2673 0.839939 2.42943
rclavicle -2.38542e-015 -1.86858e-014
rhumerus -33.9878 -13.5824 -74.3047
rradius 23.3013
rwrist -4.53438
rhand -17.3423 13.1842
rfingers 7.12502
rthumb 8.90506 -16.6079
lclavicle -2.38542e-015 -1.86858e-014
lhumerus -34.6989 9.36632 83.2572
lradius 31.7201
lwrist -0.792857
lhand -16.815 17.8308
lfingers 7.12502
lthumb 9.41385 47.6005
rfemur -6.01439 -1.00843 27.2457
rtibia 33.0286
rfoot -19.9676 5.47574
rtoes 19.58
lfemur -10.8729 1.01562 -15.7885
ltibia 41.0855
lfoot -12.2131 -9.71563
ltoes 19.869
264
root -2.73538 20.5718 10.7876 -55.9177 82.7243 -51.4083
lowerback 5.46355 -0.00380778 2.24904
upperback 4.18938 0.229274 4.09056
thorax 1.24404 0.180467 2.94493
lowerneck -11.7609 -0.972451 -8.31934
upperneck 41.9077 3.32234 0.407454
head 17.2854 0.811206 2.48607
rclavicle -1.10325e-014 4.37326e-015
rhumerus -34.0709 -14.1724 -74.0042
rradius 22.7348
rwrist -3.8308
rhand -17.6849 13.3506
rfingers 7.12502
rthumb 8.57444 -16.4552
lclavicle -1.10325e-014 4.37326e-015
lhumerus -34.6396 9.24293 83.4521
lradius 31.0615
lwrist -0.180926
lhand -17.7179 17.9053
lfingers 7.12502
lthumb 8.54254 47.7125
rfemur -5.33667 -0.958571 28.019
rtibia 32.6082
rfoot -19.973 5.14192
rtoes 21.9606
lfemur -11.5911 1.4032 -15.008
ltibia 42.9295
lfoot -11.4326 -9.88473
ltoes 14.5824
265
root -2.70585 20.5763 10.8128 -58.7586 82.6865 -54.1124
lowerback 5.684 -0.00077104 2.49528
upperback 4.16132 0.259215 4.10096
thorax 1.09245 0.201672 2.81508
lowerneck -11.6817 -0.992774 -8.31069
upperneck 41.9411 3.14187 0.754718
head 17.2774 0.788999 2.61295
rclavicle -4.91992e-015 0
rhumerus -34.2881 -14.8499 -73.8174
rradius 22.1674
rwrist -3.29741
rhand -18.3956 13.7814
rfingers 7.12502
rthumb 7.88857 -16.0514
lclavicle -4.91992e-015 0
lhumerus -34.712 9.02609 83.5436
lradius 30.362
lwrist 0.377497
lhand -19.0631 18.0687
lfingers 7.12502
lthumb 7.24421 47.9247
rfemur -4.80468 -0.95129 28.3972
rtibia 32.1054
rfoot -19.8803 5.02156
rtoes 23.614
lfemur -12.5913 1.83389 -14.5598
ltibia 44.8959
lfoot -9.65593 -10.5671
ltoes 14.2452
266
root -2.67574 20.5772 10.8307 -59.9778 82.9715 -55.1021
lowerback 5.93261 0.0259396 2.34674
upperback 4.19779 0.300683 4.04665
thorax 0.989979 0.220327 2.83969
lowerneck -11.5956 -1.06662 -8.42334
upperneck 41.9178 2.94076 1.02197
head 17.2426 0.729143 2.71917
rclavicle 1.63997e-015 -6.44062e-014
rhumerus -34.4068 -15.2743 -73.6774
rradius 21.6983
rwrist -3.0359
rhand -18.6336 13.632
rfingers 7.12502
rthumb 7.65885 -16.2093
lclavicle 1.63997e-015 -6.44062e-014
lhumerus -34.7437 9.13558 83.5364
lradius 29.6921
lwrist -0.180871
lhand -19.2258 18.4892
lfingers 7.12502
lthumb 7.08723 48.3505
rfemur -4.14412 -0.948677 28.291
rtibia 31.5352
rfoot -19.8048 4.91168
rtoes 23.4523
lfemur -13.5501 2.04168 -14.5859
ltibia 46.9389
lfoot -7.70782 -11.0133
ltoes 16.1614
267
root -2.63787 20.5799 10.8492 -62.135 82.9692 -57.0849
lowerback 6.02012 0.0285495 2.52381
upperback 4.30843 0.318159 4.06063
thorax 1.05628 0.235601 2.75452
lowerneck -11.5668 -1.14868 -8.49498
upperneck 41.6832 2.76013 1.08966
head 17.1099 0.655712 2.72128
rclavicle 5.2181e-015 -4.37326e-015
rhumerus -34.3942 -15.7934 -73.5436
rradius 21.277
rwrist -2.6096
rhand -18.3272 12.7113
rfingers 7.12502
rthumb 7.95453 -17.119
lclavicle 5.2181e-015 -4.37326e-015
lhumerus -34.6938 9.59546 83.2876
lradius 29.1002
lwrist -1.55963
lhand -18.0179 18.7142
lfingers 7.12502
lthumb 8.25306 48.533
rfemur -3.50146 -1.00573 28.4803
rtibia 30.9748
rfoot -20.0594 4.885
rtoes 22.7596
lfemur -14.5478 2.33831 -14.3058
ltibia 48.9807
lfoot -6.12517 -10.9421
ltoes 15.2901
268
root -2.58909 20.5862 10.8639 -65.2908 82.6009 -60.3015
lowerback 5.76689 0.0050332 3.21723
upperback 4.37976 0.306223 4.10558
thorax 1.2755 0.24826 2.41446
lowerneck -11.6085 -1.21999 -8.38146
upperneck 41.4588 2.58245 1.06749
head 17.0046 0.597229 2.65168
rclavicle -1.68967e-015 -5.1684e-014
rhumerus -34.4617 -16.3074 -73.4573
rradius 20.9589
rwrist -2.15128
rhand -17.9852 12.3589
rfingers 7.12502
rthumb 8.28459 -17.4586
lclavicle -1.68967e-015 -5.1684e-014
lhumerus -34.7526 10.0139 82.964
lradius 28.5725
lwrist -2.29212
lhand -17.1681 18.3426
lfingers 7.12502
lthumb 9.07313 48.1275
rfemur -3.03839 -1.38951 29.0005
rtibia 30.3624
rfoot -19.7265 5.19488
rtoes 21.4694
lfemur -15.8028 2.91847 -13.572
ltibia 50.9966
lfoot -3.70406 -11.2692
ltoes 16.2215
269
root -2.54269 20.591 10.8758 -68.8873 82.4607 -64.0135
lowerback 5.49731 -0.0613791 3.64698
upperback 4.40637 0.22116 4.16965
thorax 1.45709 0.218087 2.24544
lowerneck -11.7516 -1.3025 -8.30753
upperneck 41.4968 2.45275 1.06012
head 17.0715 0.550796 2.61753
rclavicle 1.23743e-014 4.69132e-014
rhumerus -34.6016 -16.5657 -73.3403
rradius 20.8212
rwrist -1.64827
rhand -17.4701 12.6492
rfingers 7.12502
rthumb 8.78169 -17.1481
lclavicle 1.23743e-014 4.69132e-014
lhumerus -34.8084 10.174 82.9278
lradius 28.0887
lwrist -2.10843
lhand -17.416 18.088
lfingers 7.12502
lthumb 8.83393 47.8831
rfemur -2.67053 -2.23355 29.3014
rtibia 29.6748
rfoot -19.4932 5.49041
rtoes 21.2759
lfemur -17.2631 3.28705 -13.015
ltibia 52.9672
lfoot -1.22814 -11.5166
ltoes 17.2295
270
root -2.50309 20.5988 10.8886 -72.2514 82.534 -67.2628
lowerback 5.55787 -0.144776 3.79533
upperback 4.42824 0.123191 4.2032
thorax 1.44797 0.174037 2.20149
lowerneck -11.6822 -1.35952 -8.37133
upperneck 41.5414 2.35064 1.15959
head 17.083 0.515489 2.6585
rclavicle 3.23025e-015 3.85642e-014
rhumerus -34.795 -16.763 -73.2021
rradius 20.7102
rwrist -0.997641
rhand -17.0065 12.8273
rfingers 7.12502
rthumb 9.22911 -16.9507
lclavicle 3.23025e-015 3.85642e-014
lhumerus -34.9265 10.5605 82.8121
lradius 27.6185
lwrist -2.54514
lhand -17.55 18.2415
lfingers 7.12502
lthumb 8.70457 48.0421
rfemur -2.1141 -2.90308 29.3781
rtibia 29.0121
rfoot -19.3405 5.51053
rtoes 20.5744
lfemur -18.5312 3.39222 -12.7664
ltibia 54.8276
lfoot 0.443266 -11.3895
ltoes 15.1144
271
root -2.47206 20.6094 10.9086 -74.4435 82.3879 -69.1918
lowerback 5.86449 -0.183178 3.97696
upperback 4.4811 0.106483 4.27881
thorax 1.3332 0.171896 2.17914
lowerneck -11.5204 -1.3726 -8.37657
upperneck 41.4982 2.25937 1.29421
head 17.0176 0.500963 2.70134
rclavicle -2.68359e-015 -9.14409e-015
rhumerus -34.9019 -16.9099 -73.1583
rradius 20.5357
rwrist -0.610726
rhand -16.8152 12.7346
rfingers 7.12502
rthumb 9.41364 -17.0352
lclavicle -2.68359e-015 -9.14409e-015
lhumerus -35.1073 11.2776 82.4911
lradius 27.1433
lwrist -3.54354
lhand -17.1414 18.2873
lfingers 7.12502
lthumb 9.09886 48.071
rfemur -1.33337 -2.82357 29.6762
rtibia 28.3222
rfoot -19.1708 5.61033
rtoes 21.5272
lfemur -19.6297 3.63527 -12.3232
ltibia 56.5832
lfoot 2.43536 -11.882
ltoes 14.3677
272
root -2.44707 20.6167 10.9387 -75.6095 82.2807 -70.1444
lowerback 6.21759 -0.108027 3.93526
upperback 4.54103 0.233969 4.36059
thorax 1.19751 0.236095 2.28096
lowerneck -11.4756 -1.43759 -8.37563
upperneck 41.4345 2.07771 1.45964
head 16.9763 0.451485 2.74278
rclavicle -1.66979e-014 -2.3059e-014
rhumerus -35.0154 -17.0568 -73.1795
rradius 20.5678
rwrist -0.734048
rhand -16.7465 12.3249
rfingers 7.12502
rthumb 9.47999 -17.4419
lclavicle -1.66979e-014 -2.3059e-014
lhumerus -35.1829 11.5638 82.3427
lradius 26.7616
lwrist -4.05206
lhand -16.5786 18.2092
lfingers 7.12502
lthumb 9.64193 47.9686
rfemur -0.602412 -2.69908 29.9816
rtibia 27.5415
rfoot -18.7629 5.48599
rtoes 23.6842
lfemur -20.7851 3.97495 -11.8871
ltibia 58.2357
lfoot 4.31343 -12.7251
ltoes 14.0804
273
root -2.40933 20.6177 10.9594 -76.6444 81.8733 -71.1077
lowerback 6.31778 -0.0954652 4.24443
upperback 4.58594 0.281531 4.55848
thorax 1.18979 0.26953 2.31153
lowerneck -11.4729 -1.4571 -8.46484
upperneck 41.3482 2.05888 1.46573
head 16.929 0.432084 2.75462
rclavicle 6.21202e-015 -3.02153e-014
rhumerus -35.0507 -16.5411 -73.3703
rradius 20.723
rwrist -1.15815
rhand -16.5758 11.8807
rfingers 7.12502
rthumb 9.64465 -17.8785
lclavicle 6.21202e-015 -3.02153e-014
lhumerus -35.3241 12.0577 82.154
lradius 26.4357
lwrist -4.6894
lhand -15.6162 18.0749
lfingers 7.12502
lthumb 10.5704 47.7891
rfemur -0.0334058 -3.2421 30.4949
rtibia 26.7268
rfoot -18.1314 5.37588
rtoes 24.5578
lfemur -21.9726 4.22939 -11.2127
ltibia 59.8239
lfoot 5.48347 -12.8781
ltoes 13.6434
274
root -2.36346 20.6122 10.9658 -77.4547 81.2172 -71.8718
lowerback 6.30897 -0.183511 4.90155
upperback 4.62292 0.207507 4.79628
thorax 1.23805 0.25171 2.19647
lowerneck -11.4727 -1.38712 -8.62859
upperneck 41.3582 2.19812 1.51322
head 16.9244 0.470206 2.82872
rclavicle 3.27995e-015 3.37934e-014
rhumerus -34.9574 -15.5366 -73.7158
rradius 20.7564
rwrist -1.63124
rhand -16.2916 11.3612
rfingers 7.12502
rthumb 9.91882 -18.3851
lclavicle 3.27995e-015 3.37934e-014
lhumerus -35.5585 12.713 81.8867
lradius 26.1109
lwrist -5.25267
lhand -14.5323 17.7922
lfingers 7.12502
lthumb 11.6158 47.4502
rfemur 0.542571 -3.76219 31.1578
rtibia 25.9566
rfoot -17.7433 5.48834
rtoes 23.8856
lfemur -23.0742 4.43694 -10.3851
ltibia 61.3112
lfoot 5.96733 -12.6698
ltoes 12.9337
275
root -2.31993 20.6101 10.9807 -77.5641 80.8081 -71.8572
lowerback 6.35181 -0.0618595 5.36539
upperback 4.69726 0.398143 4.8285
thorax 1.2959 0.3624 1.96262
lowerneck -11.5077 -1.48106 -8.67307
upperneck 41.5304 1.99904 1.76791
head 17.0369 0.415123 2.92853
rclavicle -2.6339e-015 8.34896e-015
rhumerus -35.039 -15.4806 -73.8965
rradius 20.8415
rwrist -1.74742
rhand -17.9263 13.7951
rfingers 7.12502
rthumb 8.34149 -16.0202
lclavicle -2.6339e-015 8.34896e-015
lhumerus -35.6241 12.4496 81.8645
lradius 25.854
lwrist -5.21089
lhand -14.6801 17.6946
lfingers 7.12502
lthumb 11.4733 47.3606
rfemur 1.22393 -3.54188 31.6607
rtibia 25.2091
rfoot -17.7654 5.10343
rtoes 21.3611
lfemur -24.0223 4.73148 -9.84323
ltibia 62.6226
lfoot 5.52391 -12.9033
ltoes 10.4591
276
root -2.27367 20.6199 10.9985 -76.5595 80.6097 -70.7134
lowerback 6.31638 0.201216 5.61717
upperback 4.84808 0.751723 4.78844
thorax 1.47921 0.552577 1.76597
lowerneck -11.6039 -1.68446 -8.61816
upperneck 41.6485 1.63633 1.92589
head 17.1516 0.295026 2.93827
rclavicle -5.86415e-015 -2.54444e-014
rhumerus -35.0997 -15.8229 -73.9761
rradius 20.9537
rwrist -1.64153
rhand -18.7512 14.782
rfingers 7.12502
rthumb 7.54534 -15.0634
lclavicle -5.86415e-015 -2.54444e-014
lhumerus -35.525 11.9237 82.0035
lradius 25.5941
lwrist -5.12546
lhand -15.5423 17.9537
lfingers 7.12502
lthumb 10.6417 47.6642
rfemur 1.9371 -3.19417 31.9108
rtibia 24.4572
rfoot -17.7888 4.60991
rtoes 18.6678
lfemur -24.8349 5.12896 -9.60054
ltibia 63.7604
lfoot 4.53343 -13.401
ltoes 7.45379
